<?xml version="1.0" encoding="UTF-8"?>
<svg width="500px" height="500px" viewBox="0 0 500 500" version="1.1" xmlns="http://www.w3.org/2000/svg" xmlns:xlink="http://www.w3.org/1999/xlink">
    <!-- Generator: Sketch 45.2 (43514) - http://www.bohemiancoding.com/sketch -->
    <title>logo</title>
    <desc>Created with Sketch.</desc>
    <defs></defs>
    <g id="Branding" stroke="none" stroke-width="1" fill="none" fill-rule="evenodd">
        <g id="Breezey-Logo-/-Normal" transform="translate(1.000000, 0.000000)" fill="#0095DA">
            <g id="Logo-Artwork" transform="translate(-1.000000, 0.000000)">
                <path d="M28.7233753,188.118128 C24.0991701,223.457268 35.3581045,257.190083 58.2780782,285.702343 C54.2570302,277.46993 51.8444014,268.635145 51.8444014,259.398779 C51.8444014,230.284147 77.1770038,156.99559 261.13995,162.216145 C266.367312,162.416935 271.795727,162.416935 277.02309,162.617726 L247.669439,118.243011 L294.514648,147.558433 L313.413574,66.6398348 L332.111447,146.755271 L377.750342,118.243011 L346.386168,165.830375 L441.483953,180.889667 L345.783011,196.149751 L377.750342,244.540277 L332.111447,216.028017 L313.413574,298.75373 L294.514648,215.425645 L247.870492,244.540277 L280.038876,195.748169 C277.224142,195.748169 268.377836,196.350541 265.764155,196.752122 C129.450628,214.220902 106.128549,263.816172 106.128549,289.115783 C106.128549,317.828834 127.037999,340.718959 160.010593,351.963231 C162.423221,352.766393 164.433745,353.368765 166.645322,353.971136 C186.348457,359.794063 207.660012,363.809874 229.976828,365.416199 C352.618792,373.849402 461.388141,308.190887 473.04918,218.638294 C484.509167,129.085701 394.638744,49.7734271 271.795727,41.1394328 C263.954684,40.9386422 256.515745,40.5370611 248.875754,40.7378516 C135.884305,41.3402233 39.5802049,104.187671 28.7233753,188.118128 Z" id="icon"></path>
                <path d="M110.02192,438.279365 C110.02192,438.279365 110.693974,426.485795 97.8289396,426.485795 L75.7471647,426.485795 C71.3308097,426.485795 71.5228251,422.554605 71.5228251,422.554605 L71.5228251,418.527532 C71.5228251,418.527532 70.9467788,414.596342 75.7471647,414.596342 L109.253858,414.596342 C109.733897,414.596342 110.02192,414.212811 110.02192,413.925163 L110.02192,407.501023 C110.02192,407.117493 109.637889,406.829845 109.253858,406.829845 L65.4743389,406.829845 C52.1292663,406.829845 53.2813589,418.623415 53.2813589,418.623415 L53.2813589,422.554605 C53.2813589,422.554605 52.7053126,434.348175 65.4743389,434.348175 L87.844137,434.348175 C92.3564998,434.348175 91.7804535,438.279365 91.7804535,438.279365 L91.7804535,446.141746 C91.7804535,446.141746 91.7804535,450.072936 87.844137,450.072936 L54.0494206,450.072936 C53.569382,450.072936 53.2813589,450.456466 53.2813589,450.839997 L53.2813589,457.264137 C53.2813589,457.647668 53.6653897,457.935316 54.0494206,457.935316 L97.9249474,457.935316 C111.078005,457.935316 110.117927,446.141746 110.117927,446.141746 L110.02192,438.279365 L110.02192,438.279365 Z M157.449732,406.829845 L115.686375,406.829845 C115.206336,406.829845 114.918313,407.213375 114.918313,407.501023 L114.918313,413.925163 C114.918313,414.308694 115.302344,414.596342 115.686375,414.596342 L148.328999,414.596342 C153.993454,414.596342 153.513416,419.486359 153.513416,419.486359 L153.513416,426.389912 L127.207301,426.389912 C114.438275,426.389912 115.014321,438.183483 115.014321,438.183483 L115.014321,446.045863 C115.014321,446.045863 114.342267,457.839433 127.207301,457.839433 L157.54574,457.839433 C171.754882,457.839433 171.754882,444.032326 171.754882,444.032326 L171.754882,420.445186 C171.658874,420.541069 173.675036,406.829845 157.449732,406.829845 L157.449732,406.829845 Z M148.136983,450.072936 L138.152181,450.072936 C132.679741,450.072936 133.15978,445.182919 133.15978,445.182919 L133.15978,439.334075 C133.15978,439.334075 132.583733,434.444058 138.152181,434.444058 L153.417408,434.444058 L153.417408,445.182919 C153.417408,445.087036 153.897446,450.072936 148.136983,450.072936 L148.136983,450.072936 Z M260.177989,406.829845 L229.839551,406.829845 C215.630409,406.829845 215.630409,420.636951 215.630409,420.636951 L215.630409,444.224092 C215.630409,444.224092 213.614247,458.031199 229.839551,458.031199 L271.602908,458.031199 C272.082946,458.031199 272.370969,457.647668 272.370969,457.36002 L272.370969,450.93588 C272.370969,450.552349 271.986939,450.168818 271.602908,450.168818 L238.960284,450.168818 C233.295829,450.168818 233.775867,445.278801 233.775867,445.278801 L233.775867,438.279365 L260.081982,438.279365 C272.851008,438.279365 272.274962,426.485795 272.274962,426.485795 L272.274962,418.527532 C272.274962,418.527532 272.947016,406.829845 260.177989,406.829845 L260.177989,406.829845 Z M249.041094,430.416985 L233.775867,430.416985 L233.775867,419.678124 C233.775867,419.678124 233.295829,414.692225 238.960284,414.692225 L248.945086,414.692225 C254.417526,414.692225 253.937488,419.582242 253.937488,419.582242 L253.937488,425.431086 C254.033496,425.431086 254.609542,430.416985 249.041094,430.416985 L249.041094,430.416985 Z M322.102967,394.940392 L305.397624,394.940392 C304.917586,394.940392 304.629562,395.323922 304.629562,395.707453 L304.629562,457.264137 C304.629562,457.647668 305.013593,457.935316 305.397624,457.935316 L322.102967,457.935316 C322.583006,457.935316 322.871029,457.551785 322.871029,457.264137 L322.871029,395.707453 C322.775021,395.323922 322.486998,394.940392 322.102967,394.940392 L322.102967,394.940392 Z M390.748485,450.072936 L380.283644,450.072936 C374.619188,450.072936 375.099227,445.182919 375.099227,445.182919 L375.099227,441.539377 L375.099227,441.443494 L375.099227,419.390476 C375.099227,419.390476 374.619188,414.596342 379.99562,414.596342 L390.556469,414.596342 C391.036508,414.596342 391.324531,414.212811 391.324531,413.925163 L391.324531,407.501023 C391.324531,407.117493 390.9405,406.829845 390.556469,406.829845 L379.803605,406.829845 C376.347327,406.829845 375.099227,408.07632 375.099227,408.07632 L375.099227,395.707453 C375.099227,395.323922 374.715196,394.940392 374.331165,394.940392 L357.625822,394.940392 C357.145784,394.940392 356.857761,395.323922 356.857761,395.707453 L356.857761,439.621723 L356.857761,439.621723 L356.857761,444.128209 C356.857761,444.128209 356.089699,457.935316 371.066903,457.935316 L390.652477,457.935316 C391.132516,457.935316 391.420539,457.551785 391.420539,457.264137 L391.420539,450.839997 C391.516547,450.456466 391.132516,450.072936 390.748485,450.072936 L390.748485,450.072936 Z M412.542237,438.279365 L438.848351,438.279365 C451.617377,438.279365 451.041331,426.485795 451.041331,426.485795 L451.041331,418.527532 C451.041331,418.527532 451.713385,406.733962 438.848351,406.733962 L408.509912,406.733962 C394.30077,406.733962 394.30077,420.541069 394.30077,420.541069 L394.30077,444.128209 C394.30077,444.128209 392.284608,457.935316 408.509912,457.935316 L450.273269,457.935316 C450.753308,457.935316 451.041331,457.551785 451.041331,457.264137 L451.041331,450.839997 C451.041331,450.456466 450.6573,450.072936 450.273269,450.072936 L417.630646,450.072936 C411.96619,450.072936 412.446229,445.182919 412.446229,445.182919 L412.542237,438.279365 L412.542237,438.279365 Z M417.822661,414.596342 L427.807464,414.596342 C433.279903,414.596342 432.799865,419.486359 432.799865,419.486359 L432.799865,425.335203 C432.799865,425.335203 433.375911,430.22522 427.807464,430.22522 L412.542237,430.22522 L412.542237,419.486359 C412.542237,419.582242 412.062198,414.596342 417.822661,414.596342 Z M348.409081,394.940392 L331.703739,394.940392 C331.2237,394.940392 330.935677,395.323922 330.935677,395.707453 L330.935677,406.062783 C330.935677,406.446314 331.319708,406.733962 331.703739,406.733962 L348.409081,406.733962 C348.88912,406.733962 349.177143,406.350431 349.177143,406.062783 L349.177143,395.707453 C349.081136,395.323922 348.793112,394.940392 348.409081,394.940392 Z M348.409081,414.692225 L331.703739,414.692225 C331.2237,414.692225 330.935677,415.075756 330.935677,415.363404 L330.935677,457.264137 C330.935677,457.647668 331.319708,457.935316 331.703739,457.935316 L348.409081,457.935316 C348.88912,457.935316 349.177143,457.551785 349.177143,457.264137 L349.177143,415.363404 C349.081136,414.979873 348.793112,414.692225 348.409081,414.692225 Z M295.700845,394.940392 L278.995502,394.940392 C278.515463,394.940392 278.22744,395.323922 278.22744,395.707453 L278.22744,457.264137 C278.22744,457.647668 278.611471,457.935316 278.995502,457.935316 L295.700845,457.935316 C296.180883,457.935316 296.468906,457.551785 296.468906,457.264137 L296.468906,395.707453 C296.468906,395.323922 296.084876,394.940392 295.700845,394.940392 L295.700845,394.940392 Z M211.598085,450.072936 L201.133243,450.072936 C195.468788,450.072936 195.948827,445.182919 195.948827,445.182919 L195.948827,441.539377 L195.948827,441.443494 L195.948827,419.390476 C195.948827,419.390476 195.468788,414.596342 200.84522,414.596342 L211.406069,414.596342 C211.886108,414.596342 212.174131,414.212811 212.174131,413.925163 L212.174131,407.501023 C212.174131,407.117493 211.7901,406.829845 211.406069,406.829845 L200.749212,406.829845 C197.868981,406.829845 195.948827,408.172202 195.948827,408.172202 L195.948827,395.803336 C195.948827,395.419805 195.564796,395.036274 195.180765,395.036274 L178.475422,395.036274 C177.995383,395.036274 177.70736,395.419805 177.70736,395.803336 L177.70736,439.813488 L177.70736,439.813488 L177.70736,444.319975 C177.70736,444.319975 176.939299,458.127081 191.916502,458.127081 L211.502077,458.127081 C211.982115,458.127081 212.270139,457.74355 212.270139,457.455902 L212.270139,451.031762 C212.366146,450.456466 212.078123,450.072936 211.598085,450.072936 Z" id="text"></path>
            </g>
        </g>
    </g>
</svg>