<?xml version="1.0" encoding="UTF-8"?>
<svg width="50px" height="50px" viewBox="0 0 50 50" version="1.1" xmlns="http://www.w3.org/2000/svg" xmlns:xlink="http://www.w3.org/1999/xlink">
    <!-- Generator: Sketch 43.2 (39069) - http://www.bohemiancoding.com/sketch -->
    <title>calendar_icon</title>
    <desc>Created with Sketch.</desc>
    <defs></defs>
    <g id="Symbols" stroke="none" stroke-width="1" fill="none" fill-rule="evenodd">
        <g id="Icon-/-Calendar" fill="#2C2C2C">
            <path d="M7,38.7511819 L11.5,38.7511819 L11.5,43.2515196 L7,43.2515196 L7,38.7511819 Z M14.875,38.7511819 L19.375,38.7511819 L19.375,43.2515196 L14.875,43.2515196 L14.875,38.7511819 Z M22.75,38.7511819 L27.25,38.7511819 L27.25,43.2515196 L22.75,43.2515196 L22.75,38.7511819 Z M7,30.8755909 L11.5,30.8755909 L11.5,35.3759286 L7,35.3759286 L7,30.8755909 Z M14.875,30.8755909 L19.375,30.8755909 L19.375,35.3759286 L14.875,35.3759286 L14.875,30.8755909 Z M22.75,30.8755909 L27.25,30.8755909 L27.25,35.3759286 L22.75,35.3759286 L22.75,30.8755909 Z M30.625,30.8755909 L35.125,30.8755909 L35.125,35.3759286 L30.625,35.3759286 L30.625,30.8755909 Z M38.5,30.8755909 L43,30.8755909 L43,35.3759286 L38.5,35.3759286 L38.5,30.8755909 Z M14.875,23 L19.375,23 L19.375,27.5003377 L14.875,27.5003377 L14.875,23 Z M22.75,23 L27.25,23 L27.25,27.5003377 L22.75,27.5003377 L22.75,23 Z M30.625,23 L35.125,23 L35.125,27.5003377 L30.625,27.5003377 L30.625,23 Z M38.5,23 L43,23 L43,27.5003377 L38.5,27.5003377 L38.5,23 Z M7,23 L11.5,23 L11.5,27.5003377 L7,27.5003377 L7,23 Z" id="Combined-Shape"></path>
            <path d="M3,47 L47,47 L47,6.26086957 L3,6.26086957 L3,47 Z M0,5.26919158 C0,4.16002596 0.889064278,3.26086957 1.99091407,3.26086957 L48.0090859,3.26086957 C49.1086374,3.26086957 50,4.15281018 50,5.26919158 L50,47.991678 C50,49.1008436 49.1109357,50 48.0090859,50 L1.99091407,50 C0.891362589,50 0,49.1080594 0,47.991678 L0,5.26919158 Z" id="Rectangle-2" fill-rule="nonzero"></path>
            <rect id="Rectangle" x="0" y="15.7608696" width="50" height="2.7173913"></rect>
            <rect id="Rounded-Rectangle" x="36.9565217" y="0" width="3.26086957" height="9.7826087" rx="1.63043478"></rect>
            <rect id="Rounded-Rectangle" x="31.5217391" y="0" width="3.26086957" height="9.7826087" rx="1.63043478"></rect>
            <rect id="Rounded-Rectangle" x="15.2173913" y="0" width="3.26086957" height="9.7826087" rx="1.63043478"></rect>
            <rect id="Rounded-Rectangle" x="9.7826087" y="0" width="3.26086957" height="9.7826087" rx="1.63043478"></rect>
        </g>
    </g>
</svg>