<?xml version="1.0" encoding="UTF-8"?>
<svg width="50px" height="50px" viewBox="0 0 50 50" version="1.1" xmlns="http://www.w3.org/2000/svg" xmlns:xlink="http://www.w3.org/1999/xlink">
    <!-- Generator: Sketch 43.2 (39069) - http://www.bohemiancoding.com/sketch -->
    <title>clock_icon</title>
    <desc>Created with Sketch.</desc>
    <defs></defs>
    <g id="Symbols" stroke="none" stroke-width="1" fill="none" fill-rule="evenodd">
        <g id="Icon-/-Clock" fill="#2C2C2C">
            <path d="M27,23.7493454 L32.104233,20.0068778 C32.940217,19.2041147 34.2367276,19.2018903 35,20 C35.7400178,20.7748551 35.7103404,22.0244038 34.9326601,22.835305 L27.2860755,28.4418465 C26.7245114,28.994292 25.9430471,29.1765727 25.259822,28.9844295 C25.174891,28.9953479 25.0883219,29.0006336 25.0004698,28.9999219 C23.9048626,29.0097753 23.0093963,28.0865043 23,26.9385739 L23,14.0529641 C23.0234907,12.8941948 23.9386892,11.9758505 25.0427531,12.0004842 C26.11393,12.0251179 26.9765093,12.9296674 27,14.0529641 L27,23.7493454 Z M24.5667075,0.00382053611 C38.3710596,-0.235091573 49.7557449,10.7609914 49.9961801,24.5673547 C50.2350839,38.3721864 39.2378516,49.7572674 25.4334995,49.9961795 C11.6291474,50.2350916 0.244462081,39.2390086 0.00402683857,25.4341768 C0.0024954039,25.290217 0.000963969237,25.1462571 0.000963969237,25.0022972 C-0.118487935,11.31539 10.8787444,0.123276591 24.565176,0.00382053611 L24.5667075,0.00382053611 Z M24.6360343,4.00320925 L24.6347479,4.00320925 C13.1381453,4.10355234 3.90047013,13.5049276 4.00080973,25.0019297 C4.00080973,25.122856 4.00209614,25.2437822 4.00338254,25.3647085 C4.20534815,36.9607672 13.7684838,46.1974769 25.3641396,45.9967907 C36.9597953,45.7961046 46.1974705,36.2326366 45.9967913,24.6365779 C45.7948257,13.0392328 36.23169,3.80252308 24.6360343,4.00320925 Z" id="Clock-Icon-"></path>
        </g>
    </g>
</svg>