<?xml version="1.0" encoding="UTF-8"?>
<svg width="50px" height="50px" viewBox="0 0 50 50" version="1.1" xmlns="http://www.w3.org/2000/svg" xmlns:xlink="http://www.w3.org/1999/xlink">
    <!-- Generator: Sketch 43.2 (39069) - http://www.bohemiancoding.com/sketch -->
    <title>fan_icon</title>
    <desc>Created with Sketch.</desc>
    <defs></defs>
    <g id="Symbols" stroke="none" stroke-width="1" fill="none" fill-rule="evenodd">
        <g id="Icon-/-Fan" fill="#2C2C2C">
            <path d="M24.5667075,0.00382053611 C38.3710596,-0.235091573 49.7557449,10.7609914 49.9961801,24.5673547 C50.2350839,38.3721864 39.2378516,49.7572674 25.4334995,49.9961795 C11.6291474,50.2350916 0.244462081,39.2390086 0.00402683857,25.4341768 C0.0024954039,25.290217 0.000963969237,25.1462571 0.000963969237,25.0022972 C-0.118487935,11.31539 10.8787444,0.123276591 24.565176,0.00382053611 L24.5667075,0.00382053611 Z M24.6187026,3.00336207 L24.6173549,3.00336207 C12.5732951,3.1084834 2.89573062,12.9575432 3.00084829,25.0020216 C3.00084829,25.1287062 3.00219596,25.2553909 3.00354362,25.3820756 C3.21512663,37.5303276 13.2336497,47.2068806 25.3814795,46.9966379 C37.5293094,46.7863953 47.2068739,36.7675241 46.9966385,24.6192721 C46.7850555,12.4696724 36.7665324,2.79311942 24.6187026,3.00336207 Z" id="Circle"></path>
            <path d="M24.9472657,31.1016316 C25.3453508,31.0975387 25.7416656,31.048216 26.1285139,30.9546212 L26.1285139,31.164636 C26.3981845,34.3197055 28.1502122,37.1620889 30.8535066,38.8301774 C31.6369565,39.275798 32.5246706,39.5076229 33.4269401,39.5022249 C34.3287593,39.4948151 35.2192901,39.3017571 36.042561,38.9351848 C37.9454474,38.0386608 39.5171683,36.5693195 40.5355228,34.7348882 C42.8980192,30.6606004 42.3495825,26.0822771 39.2698998,24.2341465 C36.4571988,22.7409638 33.1002211,22.6630548 30.220695,24.0241317 L29.8199144,24.1501406 C29.5951876,23.5001792 29.2439597,22.900707 28.7863223,22.386016 L28.9972594,22.1970027 C31.6351589,20.4068563 33.2632856,17.4765734 33.3847526,14.300445 C33.3847526,10.7721958 29.6722584,8 24.9472657,8 C20.222273,8 16.5097788,10.7721958 16.5097788,14.300445 C16.5922454,17.4462494 18.1546054,20.370643 20.7285222,22.1970027 L20.9394594,22.386016 C20.4670051,22.9174895 20.1081577,23.5391537 19.8847735,24.2131451 L19.7582112,24.2131451 C16.8778967,22.8721504 13.530423,22.9655945 10.7301002,24.4651629 C7.65041747,26.2292875 7.10198082,30.7656078 9.46447717,34.9659045 C10.4828317,36.8003358 12.0545526,38.2696771 13.957439,39.1662011 C14.7807099,39.5327734 15.6712407,39.7258315 16.5730599,39.7332412 C17.4753294,39.7386392 18.3630435,39.5068143 19.1464934,39.0611937 C21.8805861,37.3806921 23.6441165,34.5011484 23.8925798,31.3116464 L23.8925798,30.9966241 C24.2396642,31.0670885 24.5930396,31.1022716 24.9472657,31.1016316 M21.7588952,25.8980327 C21.7588952,24.1536544 23.1729932,22.7395563 24.9173716,22.7395563 C26.6617499,22.7395563 28.0758479,24.1536544 28.0758479,25.8980327 C28.0758479,27.642411 26.6617499,29.0565091 24.9173716,29.0565091 C23.1729932,29.0565091 21.7588952,27.642411 21.7588952,25.8980327 L21.7588952,25.8980327 Z M31.1774598,26.473173 C33.2902063,25.4070074 35.7836099,25.4070074 37.8963564,26.473173 C39.8382341,27.5412057 39.9547467,30.6870475 38.3429883,33.4639325 C37.6120598,34.8073686 36.4777238,35.8873651 35.1000526,36.5515179 C34.1490984,37.0389488 33.0216777,37.0389488 32.0707235,36.5515179 C30.0669323,35.2664741 28.7970877,33.1019661 28.6530189,30.725885 L28.5365062,30.1821593 C29.6529453,29.3561449 30.3603115,28.0899595 30.4783839,26.7061983 L31.1774598,26.473173 Z M19.1144126,14.4214648 C19.1144126,12.2937131 21.7257441,10.5528255 24.9173716,10.5528255 C28.108999,10.5528255 30.7203305,12.2937131 30.7203305,14.4214648 C30.6031466,16.7668378 29.3837795,18.9186621 27.4319871,20.2244238 L26.9677504,20.6499741 C25.6842648,20.031879 24.1891647,20.031879 22.9056791,20.6499741 L22.402756,20.2244238 C20.4509636,18.9186621 19.2315965,16.7668378 19.1144126,14.4214648 L19.1144126,14.4214648 Z M21.407443,31.0024636 C21.2640937,33.3666776 20.0005911,35.5203752 18.0068076,36.7990011 C17.0606029,37.2839976 15.9388129,37.2839976 14.9926081,36.7990011 C13.6218176,36.1381653 12.4931469,35.0635627 11.7658689,33.7268362 C10.1621602,30.96382 10.3746999,27.9302987 12.2102701,26.7709912 C14.3124648,25.7101505 16.7934154,25.7101505 18.8956101,26.7709912 L19.3593331,26.8289566 C19.4896504,28.2809385 20.2712948,29.5955223 21.4847301,30.4034881 L21.407443,31.0024636 Z" id="Fan" fill-rule="nonzero"></path>
        </g>
    </g>
</svg>