<?xml version="1.0" encoding="UTF-8"?>
<svg width="50px" height="50px" viewBox="0 0 50 50" version="1.1" xmlns="http://www.w3.org/2000/svg" xmlns:xlink="http://www.w3.org/1999/xlink">
    <!-- Generator: Sketch 43.2 (39069) - http://www.bohemiancoding.com/sketch -->
    <title>flair_icon</title>
    <desc>Created with Sketch.</desc>
    <defs></defs>
    <g id="Symbols" stroke="none" stroke-width="1" fill="none" fill-rule="evenodd">
        <g id="Icon-/-Flair" fill-rule="nonzero" fill="#2C2C2C">
            <path d="M44.1857484,37.4998284 C44.1857484,40.5570007 41.6935941,43.0344446 38.6198304,43.0344446 C35.5463765,43.0344446 33.05431,40.5569134 33.05431,37.4998284 C33.05431,36.9247877 33.5226025,36.4592179 34.099544,36.4592179 C34.6764855,36.4592179 35.1447779,36.9247877 35.1447779,37.4998284 C35.1447779,39.4068232 36.7002508,40.9532236 38.6198304,40.9532236 C40.5397356,40.9532236 42.0952804,39.4068947 42.0952804,37.4998284 C42.0952804,37.4307317 42.1020802,37.3623976 42.1154544,37.295586 C42.1020802,37.2287744 42.0952804,37.1604402 42.0952804,37.0913435 C42.0952804,34.1148231 39.6405763,31.6743905 36.6451873,31.6743905 L13.4892525,31.6732303 L12.6857042,31.5946586 C10.7657201,31.5710226 9.21902428,30.0153499 9.21902428,28.1029369 C9.21902428,26.1740935 10.7913705,24.6109427 12.7299775,24.6109427 L34.099544,24.6109427 C34.6764855,24.6109427 35.1447779,25.0765125 35.1447779,25.6515532 C35.1447779,26.2265939 34.6764855,26.6921637 34.099544,26.6921637 L12.7299775,26.6921637 C11.9452374,26.6921637 11.3094922,27.324191 11.3094922,28.1029369 C11.3094922,28.8866213 11.9503304,29.51371 12.7926088,29.5148702 L13.5904581,29.5931695 L36.6451873,29.5931695 C40.7944593,29.5931695 44.1857484,32.9647417 44.1857484,37.0913435 C44.1857484,37.1604402 44.1789486,37.2287744 44.1655744,37.295586 C44.1789486,37.3623976 44.1857484,37.4307317 44.1857484,37.4998284 Z M12.7302956,22.6064058 C9.68180658,22.6064058 7.20027829,25.0735385 7.20027829,28.1028183 C7.20027829,31.0526751 9.55956663,33.4861432 12.5362411,33.5961681 L13.1922057,33.6601418 L36.6459558,33.6790859 C37.222898,33.6795519 37.6908113,34.1455013 37.6903414,34.7205427 C37.6898715,35.2955823 37.2212002,35.7607723 36.6442598,35.7603062 L13.0887752,35.7401077 L12.4184806,35.6740018 C8.34479743,35.5103934 5.10981036,32.1635049 5.10981036,28.1028183 C5.10981036,23.9234631 8.52791753,20.5251847 12.7302956,20.5251847 L34.0994644,20.5251847 C38.5303245,20.5156438 42.0952009,16.9640088 42.0952009,12.5776258 C42.0952009,12.0025851 42.5634934,11.5370153 43.1404349,11.5370153 C43.7173764,11.5370153 44.1856688,12.0025851 44.1856688,12.5776258 C44.1856688,18.1208382 39.6736737,22.6066429 34.0994644,22.6066429 C34.0879365,22.6065965 12.7302956,22.6064058 12.7302956,22.6064058 Z M38.8076151,11.7606165 L38.8076151,10.546982 C38.8076151,8.79127842 37.5420364,7.28941039 35.9100581,7.10345164 C35.4506342,7.05114457 34.9858756,7.09118819 34.5350988,7.22301627 C32.693863,7.76117536 31.6406099,9.68082029 32.1819166,11.5100163 C32.3452221,12.061862 32.0278143,12.6405045 31.4739242,12.8025147 C30.9206235,12.9643524 30.3397954,12.6494395 30.1766655,12.0981873 C29.3087082,9.16516632 30.9969729,6.08808742 33.9460756,5.2261194 C34.6649544,5.01588581 35.4108007,4.9518233 36.1476722,5.03571879 C38.8491544,5.3435441 40.898083,7.74412818 40.898083,10.546982 L40.898083,11.7606165 C40.898083,15.4970368 37.8563129,18.5211221 34.0995042,18.5211221 C34.0846376,18.521053 12.7300172,18.5208059 12.7300172,18.5208059 C7.41541938,18.5208059 3.09046792,22.8206465 3.09046792,28.1028578 C3.09046792,33.2397929 7.09725922,37.41762 12.292314,37.676347 L12.8571142,37.7309949 C12.9511459,37.7405399 13.0488323,37.7453944 13.1449291,37.7454056 L25.8755317,37.6849216 C26.4524612,37.6821805 26.9229776,38.1455117 26.9257417,38.7205404 C26.9285058,39.2955799 26.4624481,39.7633778 25.8855075,39.7661189 L13.1499171,39.8266148 C12.9793261,39.8266148 12.8109174,39.8183171 12.6500068,39.801971 L12.119774,39.7504212 C5.86491389,39.4302279 1,34.3370436 1,28.1028578 C1,21.6705688 6.26153265,16.4395849 12.7300172,16.4395849 L34.0995837,16.4395849 C36.7156953,16.4274638 38.8076151,14.3384918 38.8076151,11.7606165 Z" id="Combined-Shape"></path>
        </g>
    </g>
</svg>