<?xml version="1.0" encoding="UTF-8"?>
<svg width="50px" height="50px" viewBox="0 0 50 50" version="1.1" xmlns="http://www.w3.org/2000/svg" xmlns:xlink="http://www.w3.org/1999/xlink">
    <!-- Generator: Sketch 43.2 (39069) - http://www.bohemiancoding.com/sketch -->
    <title>horizontal_swing_lc_icon</title>
    <desc>Created with Sketch.</desc>
    <defs></defs>
    <g id="Symbols" stroke="none" stroke-width="1" fill="none" fill-rule="evenodd">
        <g id="Icon-/-Swing-Center-Left" fill-rule="nonzero" fill="#2C2C2C">
            <g id="Icon-/-AC" transform="translate(0.000000, 10.000000)">
                <path d="M2,3.99922997 L2,16.00077 C2,17.1028968 2.89858586,18 4.00718972,18 L45.9928103,18 C47.102131,18 48,17.1039436 48,16.00077 L48,3.99922997 C48,2.8971032 47.1014141,2 45.9928103,2 L4.00718972,2 C2.897869,2 2,2.89605641 2,3.99922997 Z M0,3.99922997 C0,1.79051625 1.79426827,0 4.00718972,0 L45.9928103,0 C48.2059201,0 50,1.79246765 50,3.99922997 L50,16.00077 C50,18.2094838 48.2057317,20 45.9928103,20 L4.00718972,20 C1.79407995,20 0,18.2075324 0,16.00077 L0,3.99922997 Z" id="Outside"></path>
                <path d="M45.25,4.00585866 L45.25,12.9924504 C45.25,13.6870687 44.6874517,14.25 43.9938589,14.25 L6.0061411,14.25 C5.31359827,14.25 4.75,13.6854822 4.75,12.9924504 L4.75,4.00585866 C4.75,3.5916451 4.41421356,3.25585866 4,3.25585866 C3.58578644,3.25585866 3.25,3.5916451 3.25,4.00585866 L3.25,12.9924504 C3.25,14.5133624 4.48462325,15.75 6.0061411,15.75 L43.9938589,15.75 C45.5161075,15.75 46.75,14.5152674 46.75,12.9924504 L46.75,4.00585866 C46.75,3.5916451 46.4142136,3.25585866 46,3.25585866 C45.5857864,3.25585866 45.25,3.5916451 45.25,4.00585866 Z" id="Outside"></path>
            </g>
            <path d="M42.2790798,33.8508144 C42.2806595,33.8535954 42.2822094,33.8563247 42.2837311,33.8590031 L42.2790798,33.8508144 Z M35.3619867,34 L37.3094783,42 L46.9079671,42 L42.36382,34 L35.3619867,34 Z M44.018115,32.8630104 L49.8539241,43.1369896 C50.125062,43.6143296 49.8946495,44 49.3401875,44 L36.7418852,44 C36.1910935,44 35.6320211,43.5648899 35.5013601,43.0281544 L33.053288,32.9718456 C32.9206737,32.4270864 33.2678609,32 33.8243894,32 L42.5202252,32 C43.081299,32 43.7473818,32.3863829 44.018115,32.8630104 Z" id="R-Direction"></path>
            <path d="M31.2816932,32.9820104 L32.9863629,43.0179896 C33.0782027,43.558682 32.7074728,44 32.1576859,44 L17.8424793,44 C17.3001409,44 16.921681,43.560339 17.0138022,43.0179896 L18.718472,32.9820104 C18.8103117,32.441318 19.3333461,32 19.8860734,32 L30.1140918,32 C30.6651304,32 31.189572,32.439661 31.2816932,32.9820104 Z" id="C-Direction"></path>
            <path d="M5.98188501,32.8630104 C6.25261819,32.3863829 6.91870096,32 7.47977484,32 L16.1756106,32 C16.7321391,32 17.0793263,32.4270864 16.946712,32.9718456 L14.4986399,43.0281544 C14.3679789,43.5648899 13.8089065,44 13.2581148,44 L0.659812536,44 C0.105350463,44 -0.125061997,43.6143296 0.146075924,43.1369896 L5.98188501,32.8630104 Z" id="L-Direction"></path>
        </g>
    </g>
</svg>