<?xml version="1.0" encoding="UTF-8"?>
<svg width="50px" height="50px" viewBox="0 0 50 50" version="1.1" xmlns="http://www.w3.org/2000/svg" xmlns:xlink="http://www.w3.org/1999/xlink">
    <!-- Generator: Sketch 43.2 (39069) - http://www.bohemiancoding.com/sketch -->
    <title>light_icon</title>
    <desc>Created with Sketch.</desc>
    <defs></defs>
    <g id="Symbols" stroke="none" stroke-width="1" fill="none" fill-rule="evenodd">
        <g id="Icon-/-Light" fill="#2C2C2C">
            <path d="M8.62062229,24.999595 C8.62911667,25.944084 7.83319334,26.7160377 6.84359816,26.7241379 L1.76979661,26.7241379 C0.770857618,26.7038873 -0.0208185236,25.9149231 0.000417424391,24.9631439 C0.0216533724,24.0397155 0.801437383,23.2961127 1.76979661,23.2758621 L6.84359816,23.2758621 C7.83319334,23.2839623 8.62826723,24.055916 8.62062229,24.999595 Z M49.9999326,24.999595 C50.008427,25.944084 49.2125037,26.7160377 48.2229085,26.7241379 L43.149107,26.7241379 C42.150168,26.7038873 41.3584918,25.9149231 41.3797278,24.9631439 C41.4009637,24.0397155 42.1807477,23.2961127 43.149107,23.2758621 L48.2229085,23.2758621 C49.2125037,23.2839623 50.0075776,24.055916 49.9999326,24.999595 Z M25.000405,8.62062229 C24.055916,8.62911667 23.2839623,7.83319334 23.2758621,6.84359816 L23.2758621,1.76979661 C23.2961127,0.770857618 24.0850769,-0.0208185236 25.0368561,0.000417424391 C25.9602845,0.0216533724 26.7038873,0.801437383 26.7241379,1.76979661 L26.7241379,6.84359816 C26.7160377,7.83319334 25.944084,8.62826723 25.000405,8.62062229 Z M25.000405,49.9999326 C24.055916,50.008427 23.2839623,49.2125037 23.2758621,48.2229085 L23.2758621,43.149107 C23.2961127,42.150168 24.0850769,41.3584918 25.0368561,41.3797278 C25.9602845,41.4009637 26.7038873,42.1807477 26.7241379,43.149107 L26.7241379,48.2229085 C26.7160377,49.2125037 25.944084,50.0075776 25.000405,49.9999326 Z M13.4183173,13.4177446 C12.7564692,14.0916056 11.6478127,14.0746565 10.9423355,13.3806348 L7.35461603,9.79291528 C6.66257885,9.07223939 6.66066123,7.95455787 7.34868685,7.29656441 C8.01666538,6.65861805 9.09386255,6.68420201 9.79291528,7.35461603 L13.3806348,10.9423355 C14.0746565,11.6478127 14.0910049,12.7558686 13.4183173,13.4177446 Z M42.6779083,42.6773355 C42.0160601,43.3511965 40.9074037,43.3342474 40.2019265,42.6402257 L36.614207,39.0525062 C35.9221698,38.3318303 35.9202522,37.2141488 36.6082778,36.5561554 C37.2762563,35.918209 38.3534535,35.943793 39.0525062,36.614207 L42.6402257,40.2019265 C43.3342474,40.9074037 43.3505959,42.0154595 42.6779083,42.6773355 Z M36.5822554,13.4183173 C35.9083944,12.7564692 35.9253435,11.6478127 36.6193652,10.9423355 L40.2070847,7.35461603 C40.9277606,6.66257885 42.0454421,6.66066123 42.7034356,7.34868685 C43.341382,8.01666538 43.315798,9.09386255 42.645384,9.79291528 L39.0576645,13.3806348 C38.3521873,14.0746565 37.2441314,14.0910049 36.5822554,13.4183173 Z M7.32266449,42.6779083 C6.64880348,42.0160601 6.66575257,40.9074037 7.35977429,40.2019265 L10.9474938,36.614207 C11.6681697,35.9221698 12.7858512,35.9202522 13.4438446,36.6082778 C14.081791,37.2762563 14.056207,38.3534535 13.385793,39.0525062 L9.79807354,42.6402257 C9.09259634,43.3342474 7.9845405,43.3505959 7.32266449,42.6779083 Z M24.7609421,11.2090044 C32.3771363,11.0771909 38.658342,17.1439953 38.7909959,24.7612991 C38.9228049,32.377758 32.8553664,38.659182 25.2391721,38.7909956 C17.6229779,38.9228091 11.3417722,32.8560047 11.2091183,25.2395458 C11.2082733,25.1601197 11.2074284,25.0806936 11.2074284,25.0012674 C11.1415239,17.4498704 17.2089624,11.2749112 24.7600971,11.2090044 L24.7609421,11.2090044 Z M24.8207065,14.6567533 L24.8200728,14.6567533 C19.1567218,14.7061834 14.6061429,19.3374028 14.6555713,25.0009506 C14.6555713,25.0605202 14.656205,25.1200898 14.6568387,25.1796594 C14.7563291,30.8920036 19.4672334,35.4421069 25.1793791,35.3432467 C30.8915248,35.2443865 35.4421037,30.5333185 35.3432469,24.8209743 C35.2437565,19.1079964 30.5328522,14.5578931 24.8207065,14.6567533 Z" id="Light-Icon-"></path>
        </g>
    </g>
</svg>