<?xml version="1.0" encoding="UTF-8"?>
<svg width="50px" height="50px" viewBox="0 0 50 50" version="1.1" xmlns="http://www.w3.org/2000/svg" xmlns:xlink="http://www.w3.org/1999/xlink">
    <!-- Generator: Sketch 43.2 (39069) - http://www.bohemiancoding.com/sketch -->
    <title>settings_icon</title>
    <desc>Created with Sketch.</desc>
    <defs></defs>
    <g id="Symbols" stroke="none" stroke-width="1" fill="none" fill-rule="evenodd">
        <g id="Icon-/-Settings-" fill-rule="nonzero" fill="#2C2C2C">
            <path d="M44.2425278,25.1199178 C44.2425278,25.5973596 44.2018043,25.9786344 44.1072465,26.5843654 C44.0838875,26.7340018 44.0653749,26.8545844 44.0507662,26.9548174 L49.049323,30.3817532 C50.0971362,30.963855 50.2299972,32.2972057 49.6864148,33.3648109 L44.8496064,41.703188 C44.3322635,42.7229003 42.9628975,43.1865955 41.9257982,42.7123108 L36.4675035,40.5605888 C35.6380595,41.1550297 34.7479761,41.6477001 33.1870333,42.4256482 L32.3139925,48.0182911 C32.2354334,49.1290672 31.0224094,50 29.9652818,50 L20.2309901,50 C18.9912631,50 17.9433433,49.1464143 17.8811682,48.0111728 L17.0092386,42.4256482 C15.4481839,41.6476443 14.5580847,41.154959 13.7285899,40.5604609 L8.17418321,42.7482096 C7.13951206,43.0881088 6.1864971,42.853303 5.56240701,42.2382444 L5.45362236,42.1310341 L5.37700291,41.9988904 L0.479519667,33.5487796 C-0.00503763975,32.5936895 0.122192441,31.5905786 0.938618451,30.7859675 L5.56566289,27.0865112 C5.48454191,26.6030743 5.46702952,26.045959 5.46702952,25.1199178 C5.46702952,24.642476 5.50775304,24.2612012 5.60231083,23.6554702 C5.62812417,23.4901116 5.64801916,23.3602328 5.66326774,23.2540877 L1.05391169,19.7930198 L0.938618451,19.6937036 C0.108240273,18.8753422 -0.345861468,17.6250576 0.320296103,16.7822434 L5.21026507,8.348637 L5.31904971,8.24142664 C6.14703966,7.42541897 7.05984262,7.12555453 8.17418321,7.49162599 L13.5301008,9.68776119 C14.0500654,9.3373279 14.8265321,8.81526189 15.1254933,8.62776699 C15.7121687,8.25983088 16.242988,7.97105904 16.7729494,7.74467113 L17.6386335,1.98586603 C17.7144553,0.87310657 18.9291868,0 19.9876328,0 L29.7219245,0 C30.9313314,0 32.0896834,1.05548784 31.852741,2.38465984 L32.7003187,7.81418731 C34.2613735,8.59219123 35.1514726,9.08487657 35.9809674,9.67937464 L41.5353741,7.49162599 C42.5700453,7.15172669 43.5230602,7.38653254 44.1471503,8.0015911 L44.255935,8.10880146 L44.3325544,8.24094511 L49.2300376,16.691056 C49.714595,17.646146 49.5873649,18.6492569 48.7709389,19.453868 L44.1438944,23.1533243 C44.2250154,23.6367613 44.2425278,24.1938766 44.2425278,25.1199178 Z M47.958476,32.3750416 C47.9342099,32.3630842 47.9119735,32.3499211 47.8917084,32.3359737 L47.958476,32.3750416 Z M30.0521342,47.7775483 L30.063052,47.7076098 C30.0591038,47.7256911 30.0551982,47.7486984 30.0521342,47.7775483 Z M31.0266642,40.6554524 L31.5475395,40.3987836 C33.6311711,39.3720445 34.5056497,38.8849268 35.4204478,38.1636792 L35.924758,37.7660695 L42.5087474,40.3615531 C42.5246478,40.3651676 47.3282398,32.1638803 47.3282398,32.1638803 C47.3369733,32.1466659 41.4600886,28.0672285 41.4600886,28.0672285 L41.4600886,27.4779808 C41.4600886,27.1064003 41.4842582,26.9118717 41.5932054,26.213963 C41.6697805,25.7234274 41.6995521,25.4446902 41.6995521,25.1179991 C41.6995521,23.9443054 41.6696951,23.561781 41.5174492,23.1116175 L41.2676441,22.3730828 L46.880955,17.8947342 C46.88037,17.8936187 42.2135218,9.84437605 42.2135218,9.84437605 C42.1745753,9.84061497 42.1160902,9.84722863 42.0298203,9.87444505 L35.4458309,12.4699287 L34.9415207,12.072319 C34.0267225,11.3510713 33.152244,10.8639537 31.062656,9.83425739 L30.547737,9.58054579 L29.4637138,2.63636364 L20.0682894,2.63636364 C20.0919349,2.63636364 18.9160701,9.68157668 18.9160701,9.68157668 L18.2618616,9.89649037 C17.7048652,10.079469 17.1497437,10.3590918 16.4714095,10.7845121 C16.0740461,11.0337203 14.6205453,12.0205305 14.4622675,12.1244904 L13.9631219,12.4524702 L7.71252887,9.88574628 C7.54862276,9.83584338 7.47566682,9.85011712 7.3061369,10.0044878 L2.70704473,17.9364263 C2.7441331,18.0053577 2.79427188,18.0778023 2.85130288,18.141651 L8.25503329,22.1991978 L8.25503329,22.7580174 C8.25503329,23.1295979 8.23086369,23.3241265 8.12191649,24.0220352 C8.04534131,24.5125708 8.01556972,24.791308 8.01556972,25.1179991 C8.01556972,26.2916928 8.04542674,26.6742171 8.19767266,27.1243807 L8.44747776,27.8629153 L2.8341668,32.341264 C2.83475184,32.3423794 7.50160003,40.3916221 7.50160003,40.3916221 C7.54054656,40.3953832 7.5990317,40.3887695 7.68530159,40.3615531 L14.269291,37.7660695 L14.7736012,38.1636792 C15.6883993,38.8849268 16.5628779,39.3720445 18.6465095,40.3987836 L19.1673848,40.6554524 L20.2130924,47.354187 C20.2370479,47.3597726 29.886296,47.3636364 29.886296,47.3636364 C29.8625895,47.3636364 31.0266642,40.6554524 31.0266642,40.6554524 Z" id="shape"></path>
            <path d="M25,31.75 C28.7279221,31.75 31.75,28.7279221 31.75,25 C31.75,21.2720779 28.7279221,18.25 25,18.25 C21.2720779,18.25 18.25,21.2720779 18.25,25 C18.25,28.7279221 21.2720779,31.75 25,31.75 Z M25,34 C20.0294373,34 16,29.9705627 16,25 C16,20.0294373 20.0294373,16 25,16 C29.9705627,16 34,20.0294373 34,25 C34,29.9705627 29.9705627,34 25,34 Z" id="shape"></path>
        </g>
    </g>
</svg>