<?xml version="1.0" encoding="UTF-8"?>
<svg width="50px" height="50px" viewBox="0 0 50 50" version="1.1" xmlns="http://www.w3.org/2000/svg" xmlns:xlink="http://www.w3.org/1999/xlink">
    <!-- Generator: Sketch 43.2 (39069) - http://www.bohemiancoding.com/sketch -->
    <title>snowflake_icon</title>
    <desc>Created with Sketch.</desc>
    <defs></defs>
    <g id="Symbols" stroke="none" stroke-width="1" fill="none" fill-rule="evenodd">
        <g id="Icon-/-Snowflake" fill="#2C2C2C">
            <path d="M23.2716019,27.749287 L23.2716019,38.5763295 C23.128091,38.6126907 22.9871455,38.6701125 22.8528507,38.7496826 L17.3310292,42.0213791 C16.5637368,42.4760023 16.2962424,43.4747082 16.7404329,44.264261 C17.181548,45.0483473 18.163024,45.314323 18.9284484,44.8608067 L23.2716019,42.2874746 L23.2716019,48.3592268 C23.2716019,49.2654008 23.9761493,50 24.8589035,50 C25.735546,50 26.4462051,49.2710969 26.4462051,48.3592268 L26.4462051,42.2874746 L30.7893587,44.8608067 C31.554783,45.314323 32.536259,45.0483473 32.9773741,44.264261 C33.4215646,43.4747082 33.1540703,42.4760023 32.3867778,42.0213791 L26.8649563,38.7496826 C26.7306615,38.6701125 26.589716,38.6126907 26.4462051,38.5763295 L26.4462051,27.749287 L35.8226989,33.1628082 C35.7824332,33.3052729 35.7616892,33.4560463 35.7634515,33.612134 L35.8359131,40.0300199 C35.8459821,40.9218263 36.5771396,41.6528362 37.4830076,41.6629323 C38.3826038,41.6729585 39.1036835,40.9559632 39.0936391,40.0663281 L39.0366448,35.0183808 L44.2949365,38.0542569 C45.0846393,38.510192 46.0712174,38.2591946 46.5095386,37.5 C46.9509157,36.7355124 46.6670078,35.7580569 45.8822381,35.3049699 L40.6239464,32.2690938 L45.0240942,29.7944785 C45.799563,29.3583598 46.0599593,28.3753887 45.6014782,27.6013287 C45.1398007,26.8218721 44.1411488,26.554176 43.3637874,26.9913592 L37.7695043,30.1375486 C37.6334472,30.2140662 37.5132457,30.3074177 37.4100005,30.4135212 L28.0335067,25 L37.4100005,19.5864788 C37.5132457,19.6925823 37.6334472,19.7859338 37.7695043,19.8624514 L43.3637874,23.0086408 C44.1411488,23.445824 45.1398007,23.1781279 45.6014782,22.3986713 C46.0599593,21.6246113 45.799563,20.6416402 45.0240942,20.2055215 L40.6239464,17.7309062 L45.8822381,14.6950301 C46.6719408,14.239095 46.9478598,13.2591946 46.5095386,12.5 C46.0681615,11.7355124 45.0797063,11.4926561 44.2949365,11.9457431 L39.0366448,14.9816192 L39.0936391,9.93367186 C39.1036835,9.04403677 38.3826038,8.32704146 37.4830076,8.3370677 C36.5771396,8.34716384 35.8459821,9.07817372 35.8359131,9.96998009 L35.7634515,16.387866 C35.7616892,16.5439537 35.7824332,16.6947271 35.8226989,16.8371918 L26.4462051,22.250713 L26.4462051,11.4236705 C26.589716,11.3873093 26.7306615,11.3298875 26.8649563,11.2503174 L32.3867778,7.97862089 C33.1540703,7.52399769 33.4215646,6.52529177 32.9773741,5.735739 C32.536259,4.95165273 31.554783,4.68567701 30.7893587,5.13919333 L26.4462051,7.71252545 L26.4462051,1.64077321 C26.4462051,0.728903051 25.735546,0 24.8589035,0 C23.9761493,0 23.2716019,0.734599188 23.2716019,1.64077321 L23.2716019,7.71252545 L18.9284484,5.13919333 C18.163024,4.68567701 17.181548,4.95165273 16.7404329,5.735739 C16.2962424,6.52529177 16.5637368,7.52399769 17.3310292,7.97862089 L22.8528507,11.2503174 C22.9871455,11.3298875 23.128091,11.3873093 23.2716019,11.4236705 L23.2716019,22.250713 L13.8951081,16.8371918 C13.9353738,16.6947271 13.9561178,16.5439537 13.9543555,16.387866 L13.8818939,9.96998009 C13.8718249,9.07817372 13.1406674,8.34716384 12.2347994,8.3370677 C11.3352032,8.32704146 10.6141235,9.04403677 10.624168,9.93367186 L10.6811622,14.9816192 L5.42287049,11.9457431 C4.63810077,11.4926561 3.64964554,11.7355124 3.20826842,12.5 C2.76994719,13.2591946 3.04586618,14.239095 3.83556891,14.6950301 L9.09386059,17.7309062 L4.69371283,20.2055215 C3.918244,20.6416402 3.65784772,21.6246113 4.11632879,22.3986713 C4.5780063,23.1781279 5.57665819,23.445824 6.35401966,23.0086408 L11.9483027,19.8624514 C12.0843598,19.7859338 12.2045613,19.6925823 12.3078065,19.5864788 L21.6843003,25 L12.3078065,30.4135212 C12.2045613,30.3074177 12.0843598,30.2140662 11.9483027,30.1375486 L6.35401966,26.9913592 C5.57665819,26.554176 4.5780063,26.8218721 4.11632879,27.6013287 C3.65784772,28.3753887 3.918244,29.3583598 4.69371283,29.7944785 L9.09386059,32.2690938 L3.83556891,35.3049699 C3.05079918,35.7580569 2.76689129,36.7355124 3.20826842,37.5 C3.64658965,38.2591946 4.63316777,38.510192 5.42287049,38.0542569 L10.6811622,35.0183808 L10.624168,40.0663281 C10.6141235,40.9559632 11.3352032,41.6729585 12.2347994,41.6629323 C13.1406674,41.6528362 13.8718249,40.9218263 13.8818939,40.0300199 L13.9543555,33.612134 C13.9561178,33.4560463 13.9353738,33.3052729 13.8951081,33.1628082 L23.2716019,27.749287 Z" id="icon-snowflake"></path>
        </g>
    </g>
</svg>