<?xml version="1.0" encoding="UTF-8"?>
<svg width="50px" height="50px" viewBox="0 0 50 50" version="1.1" xmlns="http://www.w3.org/2000/svg" xmlns:xlink="http://www.w3.org/1999/xlink">
    <!-- Generator: Sketch 43.2 (39069) - http://www.bohemiancoding.com/sketch -->
    <title>thermostat_icon</title>
    <desc>Created with Sketch.</desc>
    <defs></defs>
    <g id="Symbols" stroke="none" stroke-width="1" fill="none" fill-rule="evenodd">
        <g id="Icon-/-Thermostat" fill="#2C2C2C">
            <path d="M15.9575111,32.0552978 C14.0906723,33.6627701 13,35.9895134 13,38.5 C13,43.1944204 16.8055796,47 21.5,47 C26.1944204,47 30,43.1944204 30,38.5 C30,35.9895134 28.9093277,33.6627701 27.0424889,32.0552978 L26,31.1576455 L26,7.50021958 C26,5.01524764 23.9849524,3 21.5,3 C19.0197349,3 17,5.01822735 17,7.50021958 L17,31.1576455 L15.9575111,32.0552978 Z M14,7.50021958 C14,3.35796268 17.3662928,0 21.5,0 C25.6421356,0 29,3.35872243 29,7.50021958 L29,29.7819412 C31.4492339,31.8908943 33,35.0143467 33,38.5 C33,44.8512746 27.8512746,50 21.5,50 C15.1487254,50 10,44.8512746 10,38.5 C10,35.0143467 11.5507661,31.8908943 14,29.7819412 L14,7.50021958 Z" id="Combined-Shape" fill-rule="nonzero"></path>
            <circle id="Oval-2" cx="21.5" cy="38.5" r="5.5"></circle>
            <rect id="stem" x="20" y="8" width="3" height="30" rx="1.5"></rect>
            <path d="M32,13.5 C32,12.6715729 32.6715406,12 33.5064385,12 L41.4935615,12 C42.3255445,12 43,12.6657972 43,13.5 C43,14.3284271 42.3284594,15 41.4935615,15 L33.5064385,15 C32.6744555,15 32,14.3342028 32,13.5 Z M32,19.5 C32,18.6715729 32.6715406,18 33.5064385,18 L41.4935615,18 C42.3255445,18 43,18.6657972 43,19.5 C43,20.3284271 42.3284594,21 41.4935615,21 L33.5064385,21 C32.6744555,21 32,20.3342028 32,19.5 Z M32,25.5 C32,24.6715729 32.6715406,24 33.5064385,24 L41.4935615,24 C42.3255445,24 43,24.6657972 43,25.5 C43,26.3284271 42.3284594,27 41.4935615,27 L33.5064385,27 C32.6744555,27 32,26.3342028 32,25.5 Z" id="notches"></path>
        </g>
    </g>
</svg>