<?xml version="1.0" encoding="UTF-8"?>
<svg width="50px" height="50px" viewBox="0 0 50 50" version="1.1" xmlns="http://www.w3.org/2000/svg" xmlns:xlink="http://www.w3.org/1999/xlink">
    <!-- Generator: Sketch 43.2 (39069) - http://www.bohemiancoding.com/sketch -->
    <title>timer_icon</title>
    <desc>Created with Sketch.</desc>
    <defs></defs>
    <g id="Symbols" stroke="none" stroke-width="1" fill="none" fill-rule="evenodd">
        <g id="Icon-/-Timer" fill="#2C2C2C">
            <path d="M10,9 C8.8954305,9 8,8.1045695 8,7 C8,5.8954305 8.8954305,5 10,5 C11.1045695,5 12,5.8954305 12,7 C12,8.1045695 11.1045695,9 10,9 Z M17,5 C15.8954305,5 15,4.1045695 15,3 C15,1.8954305 15.8954305,1 17,1 C18.1045695,1 19,1.8954305 19,3 C19,4.1045695 18.1045695,5 17,5 Z M45.9967889,24.6367906 C45.8063541,13.7015715 37.2933609,4.86510338 26.5999718,4.0598353 L26.6000004,9.99999039 C26.6000057,11.1045599 25.7045795,11.9999947 24.60001,12 C23.4954405,12.0000053 22.6000057,11.1045791 22.6000004,10.0000096 L22.5999619,2.00352451 C22.5999567,0.912441947 23.4744377,0.0226927518 24.5653569,0.00381429225 C38.3711775,-0.235096729 49.7557522,10.7610606 49.9961863,24.5673599 C50.2350904,38.3722081 39.2378356,49.7572726 25.4334284,49.9961856 C11.6290232,50.2350987 0.244440544,39.2389497 0.0038178474,25.4207173 C0.00275113943,25.3204987 0.00275113943,25.3204987 0.0018310792,25.2167344 C0.00108123824,25.1111971 0.00108123824,25.1111971 0.000963015865,25.0195677 C-0.0409239207,20.2201246 1.28653284,15.6061597 3.78571566,11.6274286 C4.37324392,10.6920761 5.6077827,10.4101089 6.54313522,10.9976371 C7.47848773,11.5851654 7.760455,12.8197042 7.17292675,13.7550567 C5.07747928,17.0910359 3.96564668,20.9555359 4.00088685,25.0021135 C4.0010447,25.0916944 4.0010447,25.0916944 4.00170377,25.1848217 C4.00254486,25.279722 4.00254486,25.279722 4.00340142,25.3646145 C4.20536699,36.9606716 13.7684535,46.1974725 25.3642107,45.9967846 C36.9597754,45.7961 46.1974647,36.2326508 45.9967889,24.6367906 Z M14.8988565,18.0737049 C14.1021087,17.3086777 14.076394,16.0426089 14.8414213,15.245861 C15.6064485,14.4491132 16.8725173,14.4233985 17.6692652,15.1884257 L26.3852043,23.5573604 C27.1819522,24.3223876 27.2076668,25.5884565 26.4426396,26.3852043 C25.6776124,27.1819522 24.4115435,27.2076668 23.6147957,26.4426396 L14.8988565,18.0737049 Z" id="Timer-Icon"></path>
        </g>
    </g>
</svg>